<?xml version="1.0" encoding="UTF-8"?>
<svg id="Layer_1" data-name="Layer 1" xmlns="http://www.w3.org/2000/svg" viewBox="0 0 128 128">
  <defs>
    <style>
      .cls-1 {
        fill: #49ec13;
      }

      .cls-1, .cls-2 {
        stroke-width: 0px;
      }

      .cls-2 {
        fill: #333;
      }
    </style>
  </defs>
  <path id="path1314" class="cls-1" d="m92.27,47.37l-2.7,4.06c1.06.23,1.37.38,1.37.38,3.04-.81,2.26-3.78,1.32-4.44h.02Zm-16.53-2.37h-.45c-3.46,0-11.58,1.11-16.59,9.74-4.36,7.54-12.66,8.63-15.59,8.63v.75c2.97,0,12.95,1,18.13-7.93,4.38-7.57,11.2-8.28,14.09-8.28,5.87,0,8.42,1.2,12.28,6.87,3.87-.71,4.09,2.58,6.13,4.56l-1.08.78c-1.47-1.47-4.53-2.77-6.31.11-.52.84-.69,1.74-.78,2.6h-1.81v-2.93l-1.01-.32c-7.68-2.52-14.83,0-14.83,0l-1.04.31v2.97h-1.72c-.43-2.2-1.92-4.33-3.5-5.79-.63.83-1.23,1.57-1.8,2.29,1.46,1.37,2.55,3.33,2.55,4.96v1.46h7.39v-3.64c2.03-.46,6.11-1.31,11.05,0v3.66h7.54v-1.46c0-.98.2-2.1.46-2.55.57-1.23,3.06-.08,4.06,1.46l3.87-3.3c-1.57-1.75-1.63-2.7-2.37-4.27-1.29-2.75-3.92-3.47-5.22-3.67-4.76-6.48-11.45-6.99-13.43-6.99h0Z"/>
  <g>
    <path class="cls-1" d="m15.08,78.69c0,1.43-1.14,2.61-2.61,2.61h-3.47c-1.43,0-2.61-1.18-2.61-2.61v-8.42c0-1.47,1.18-2.61,2.61-2.61h3.49c1.47,0,2.61,1.14,2.61,2.61v2.61h-2.61v-2.61h-3.49v8.42h3.49v-2.61h2.61v2.61h-.02Z"/>
    <path class="cls-1" d="m24.96,81.3h-2.61v-1.11c-.2.72-1.17,1.11-1.71,1.11h-1.71c-1.43,0-2.67-1.18-2.67-2.61v-3.2c0-1.6,1.14-2.61,2.61-2.61h1.77c.95,0,1.51.38,1.71,1.11v-3.72h-5.1v-2.61h5.1c1.47,0,2.61,1.14,2.61,2.61v11.03Zm-2.61-2.61v-3.2h-3.46v3.2h3.46Z"/>
    <path class="cls-1" d="m35.12,81.3h-2.61v-11.03h-3.49v11.03h-2.61v-13.64h2.61v1.34c.32-.91,1.01-1.34,2.09-1.34h1.4c1.47,0,2.61,1.14,2.61,2.61v11.03Z"/>
    <path class="cls-1" d="m45.27,81.3h-2.61v-11.03h-3.49v11.03h-2.61v-13.64h2.61v1.34c.32-.91,1.01-1.34,2.09-1.34h1.4c1.47,0,2.61,1.14,2.61,2.61v11.03Z"/>
    <path class="cls-1" d="m55.4,67.66l-5.05,17.99h-2.78l1.34-4.35-3.72-13.64h2.78l2.32,9.74,2.32-9.74h2.8Z"/>
    <path class="cls-2" d="m63.03,81.3h-1.31v-1.11c-.17.66-.81,1.11-1.71,1.11h-1.71c-1.41,0-2.67-1.18-2.67-2.61v-2.55c0-1.54,1.14-2.61,2.61-2.61h1.77c.91,0,1.54.43,1.71,1.11v-4.35c0-.72-.58-1.31-1.31-1.31h-3.79v-1.31h3.79c1.47,0,2.61,1.18,2.61,2.61v11.03-.02Zm-1.31-5.16c0-.69-.58-1.31-1.31-1.31h-2.15c-.72,0-1.31.61-1.31,1.31v2.55c0,.72.58,1.31,1.31,1.31h2.15c.72,0,1.31-.58,1.31-1.31v-2.55Z"/>
    <path class="cls-2" d="m69.9,68.97h-2.18c-.69,0-1.31.58-1.31,1.31v11.03h-1.31v-13.64h1.31v1.31c.29-.88,1.01-1.31,2.09-1.31h1.4s0,1.31,0,1.31Z"/>
    <path class="cls-2" d="m75.25,67.66c1.18,0,1.89.49,2.09,1.34.2-.84.91-1.34,2.09-1.34h1.24c1.47,0,2.61,1.14,2.61,2.61v11.03h-1.31v-11.03c0-.72-.58-1.31-1.31-1.31h-1.74c-.69,0-1.31.58-1.31,1.31v11.03h-1.31v-11.03c0-.72-.58-1.31-1.31-1.31h-1.74c-.69,0-1.31.58-1.31,1.31v11.03h-1.31v-13.64h1.31v1.31c.29-.88,1.01-1.31,2.09-1.31h1.18,0Z"/>
    <path class="cls-2" d="m92.33,81.3h-1.31v-1.11c-.17.66-.81,1.11-1.71,1.11h-1.71c-1.41,0-2.67-1.18-2.67-2.61v-2.55c0-1.54,1.14-2.61,2.61-2.61h1.77c.91,0,1.54.43,1.71,1.11v-4.35c0-.72-.58-1.31-1.31-1.31h-3.79v-1.31h3.79c1.47,0,2.61,1.18,2.61,2.61v11.03-.02Zm-1.31-5.16c0-.69-.58-1.31-1.31-1.31h-2.15c-.72,0-1.31.61-1.31,1.31v2.55c0,.72.58,1.31,1.31,1.31h2.15c.72,0,1.31-.58,1.31-1.31v-2.55Z"/>
    <path class="cls-2" d="m101.82,81.3h-1.31v-1.31c-.29.88-.98,1.31-2.09,1.31h-1.4c-1.43,0-2.61-1.18-2.61-2.61v-8.42c0-1.41,1.18-2.61,2.61-2.61h1.4c1.14,0,1.83.43,2.09,1.31v-7.97h1.31s0,20.31,0,20.31Zm-1.31-11.03c0-.72-.58-1.31-1.31-1.31h-2.18c-.69,0-1.31.58-1.31,1.31v8.42c0,.72.61,1.31,1.31,1.31h2.18c.72,0,1.31-.58,1.31-1.31v-8.42Z"/>
    <path class="cls-1" d="m105.6,63.67c0,.52-.43.95-.95.95s-.95-.43-.95-.95.43-.95.95-.95.95.43.95.95Z"/>
    <rect class="cls-2" x="103.94" y="67.66" width="1.31" height="13.64"/>
    <path class="cls-2" d="m108.68,81.3h-1.31v-20.31h1.31v20.31Z"/>
    <path class="cls-2" d="m112.1,81.3h-1.31v-20.31h1.31v20.31Z"/>
    <path class="cls-2" d="m121.61,78.69c0,1.43-1.14,2.61-2.61,2.61h-2.18c-1.43,0-2.61-1.18-2.61-2.61v-8.42c0-1.47,1.18-2.61,2.61-2.61h2.18c1.47,0,2.61,1.14,2.61,2.61v8.42Zm-1.31-8.42c0-.72-.58-1.31-1.31-1.31h-2.18c-.69,0-1.31.58-1.31,1.31v8.42c0,.72.61,1.31,1.31,1.31h2.18c.72,0,1.31-.58,1.31-1.31v-8.42Z"/>
  </g>
</svg>